<svg height="205" preserveAspectRatio="xMidYMid meet" viewBox="60 37.5 205 205" width="205" xmlns="http://www.w3.org/2000/svg" xmlns:xlink="http://www.w3.org/1999/xlink"><defs><path id="a" d="m262.43 38.72v201.07h-201.07v-201.07z"/><path id="b" d="m256.43 191.57h-68v-62.43l-2.18 2.54-2.67 3.04-2.74 3.05-2.82 3.08-2.88 3.08-2.96 3.1-3.03 3.1-3.09 3.11-3.16 3.11-3.19 3.08-3.19 3.01-.5.47v28.66h-25.58v-6.73l-2.07 1.6-3.01 2.29-2.97 2.21-2.94 2.12-2.9 2.04-2.84 1.94-2.81 1.85-2.75 1.77-2.71 1.66-2.64 1.58-2.59 1.48-2.52 1.38-2.45 1.28-2.4 1.17-2.31 1.08-2.24.96-2.16.85-2.07.75-2.01.64-1.9.52-1.82.41-1.72.28-1.63.18-1.53.05-1.42-.08-1.31-.2-1.21-.32-1.1-.45-.97-.58-.86-.72-.74-.83-.59-.96-.47-1.06-.32-1.18-.21-1.28-.08-1.39.06-1.49.17-1.58.3-1.67.41-1.78.54-1.85.65-1.95.77-2.02.88-2.11.99-2.18 1.1-2.26.2-.37v1.16l.09 1.2.22 1.11.32 1.03.43.94.55.85.66.74.77.64.86.54.96.42 1.06.32 1.15.2 1.23.1h1.33l1.4-.1 1.48-.2 1.57-.31 1.64-.39 1.7-.5 1.79-.59 1.85-.69 1.92-.76 1.97-.87 2.04-.96 2.09-1.03 2.15-1.12 2.19-1.22 2.25-1.28 2.29-1.38 2.34-1.46 2.38-1.53 2.42-1.61 2.45-1.67 2.48-1.76 2.52-1.83 2.54-1.9 2.57-1.97 2.59-2.03 2.61-2.11 2.63-2.17 2.65-2.22 2.64-2.3 2.67-2.34 2.67-2.42 2.68-2.47 2.67-2.52 2.67-2.58 2.65-2.61 2.59-2.6 2.53-2.6 2.48-2.6 2.42-2.6 2.34-2.59 2.3-2.57 2.22-2.56 2.15-2.55 2.09-2.52 2.02-2.51 1.95-2.48 1.88-2.45 1.8-2.42 1.73-2.39 1.64-2.35 1.57-2.31 1.49-2.29 1.42-2.23 1.32-2.19 1.24-2.14 1.15-2.09 1.07-2.04.98-1.99.89-1.92.79-1.87.7-1.8.61-1.74.51-1.67.41-1.6.3-1.52.21-1.45.11-1.37v-1.29l-.11-1.2-.21-1.12-.32-1.03-.43-.94-.55-.85-.66-.74-.76-.64-.87-.54-.96-.41-1.06-.31-1.15-.22-1.23-.1h-.67l1.7-.78 2.23-.96 2.17-.87 2.08-.74 1.99-.64 1.92-.52 1.81-.4 1.73-.3 1.62-.16 1.53-.05 1.42.07 1.32.19 1.21.33 1.09.45.98.58.86.71.74.84.58.96.48 1.06.32 1.17.21 1.29.07 1.38-.06 1.49-.16 1.59-.31 1.68-.41 1.76-.54 1.87-.64 1.94-.78 2.03-.87 2.1-.99 2.19-1.1 2.25-1.21 2.33-1.31 2.39-.62 1.07v71.95h42.41zm-80.08-111.84v-.01h11.6v11.41h-.22l-8.38 13.79v.56h-23.33v29.72h-.23l-25.35 24.71v-54.43h-.75v-.01h-30.8v-25.75h31.55v.01z"/></defs><use fill="none" xlink:href="#a"/><use fill="none" xlink:href="#a"/><use fill="#eee" xlink:href="#b"/><use fill="none" xlink:href="#b"/></svg>