<svg height="205" preserveAspectRatio="xMidYMid meet" viewBox="0 0 205 205" width="205" xmlns="http://www.w3.org/2000/svg" xmlns:xlink="http://www.w3.org/1999/xlink"><defs><path id="a" d="m0 0h205v205h-205z"/><path id="b" d="m129.55 129.58h69.33v26.26h-69.33z"/><path id="c" d="m129.55 89.15h26.09v40.54h-26.09z"/><path id="d" d="m70.43 147.22h26.08v8.62h-26.08z"/><path id="e" d="m159.38 22.45 1.11.46 1 .59.88.73.75.85.6.98.48 1.08.33 1.2.21 1.31.08 1.41-.06 1.52-.17 1.62-.31 1.71-.42 1.8-.55 1.9-.66 1.98-.79 2.07-.89 2.14-1.01 2.23-1.12 2.3-1.23 2.37-1.34 2.44-1.45 2.51-1.54 2.57-1.65 2.62-1.75 2.69-1.85 2.73-1.94 2.79-2.03 2.83-2.13 2.88-2.22 2.92-2.31 2.96-2.39 2.99-2.48 3.02-2.56 3.05-2.64 3.08-2.72 3.1-2.8 3.11-2.87 3.14-2.94 3.14-3.02 3.16-3.09 3.16-3.15 3.17-3.22 3.17-3.25 3.14-3.25 3.07-3.25 3.01-3.24 2.94-3.22 2.87-3.22 2.79-3.2 2.73-3.18 2.65-3.15 2.57-3.14 2.5-3.1 2.41-3.07 2.33-3.03 2.25-2.99 2.16-2.96 2.08-2.9 1.98-2.86 1.89-2.81 1.8-2.76 1.7-2.69 1.61-2.64 1.51-2.57 1.4-2.5 1.31-2.44 1.19-2.36 1.1-2.28.98-2.2.87-2.12.76-2.04.65-1.94.53-1.86.42-1.75.29-1.66.18-1.56.05-1.45-.08-1.34-.2-1.23-.33-1.12-.46-.99-.59-.88-.73-.75-.85-.6-.98-.48-1.08-.33-1.2-.21-1.31-.08-1.41.06-1.52.17-1.61.31-1.71.42-1.81.55-1.89.66-1.99.78-2.06.9-2.15 1.01-2.22 1.12-2.3.2-.38v1.18l.1 1.23.22 1.13.33 1.05.44.96.56.86.67.76.78.65.88.55.98.43 1.08.32 1.17.21 1.26.1h1.35l1.43-.1 1.51-.21 1.6-.31 1.67-.4 1.74-.51 1.82-.6 1.89-.7 1.95-.78 2.01-.89 2.08-.97 2.13-1.06 2.19-1.14 2.24-1.24 2.29-1.31 2.34-1.4 2.38-1.49 2.43-1.56 2.46-1.64 2.5-1.71 2.53-1.79 2.57-1.87 2.59-1.93 2.62-2.01 2.64-2.07 2.66-2.15 2.68-2.21 2.7-2.27 2.7-2.34 2.72-2.39 2.72-2.46 2.73-2.52 2.72-2.57 2.73-2.63 2.7-2.66 2.64-2.65 2.58-2.66 2.53-2.65 2.46-2.65 2.39-2.64 2.34-2.62 2.27-2.61 2.19-2.6 2.13-2.57 2.06-2.55 1.99-2.53 1.91-2.5 1.84-2.47 1.76-2.43 1.68-2.4 1.6-2.36 1.52-2.33 1.44-2.27 1.35-2.24 1.26-2.18 1.18-2.13 1.09-2.08 1-2.03.9-1.96.81-1.9.71-1.84.62-1.77.52-1.7.42-1.63.31-1.55.21-1.48.11-1.4v-1.31l-.11-1.23-.21-1.14-.33-1.05-.44-.96-.56-.86-.67-.76-.78-.65-.88-.55-.98-.42-1.08-.32-1.17-.22-1.26-.1h-.68l1.73-.8 2.28-.98 2.21-.88 2.12-.76 2.03-.65 1.95-.53 1.85-.41 1.76-.3 1.66-.17 1.55-.05 1.45.07 1.35.2z"/><path id="f" d="m70.43 123.56v-25.42h26.08z"/><path id="g" d="m38.26 41.8h32.17v26.26h-32.17z"/><path id="h" d="m70.43 66.02h26.08v32.35h-26.08z"/><path id="i" d="m69.67 41.81h50.62v26.26h-50.62z"/><path id="j" d="m70.43 148.97h26.08v-22.65z"/><path id="k" d="m129.55 92.01h26.09v-37.08z"/><path id="l" d="m176.28 129.58h22.6v26.26z"/><path id="m" d="m129.06 53.08h-9.12v14.99z"/><path id="n" d="m117.24 41.8h11.82v11.64h-11.82z"/></defs><use fill="#fff" xlink:href="#a"/><use fill="none" xlink:href="#a"/><use fill="#186993" xlink:href="#b"/><use fill="none" xlink:href="#b"/><use fill="#081340" xlink:href="#c"/><use fill="none" xlink:href="#c"/><use fill="#081340" xlink:href="#d"/><use fill="none" xlink:href="#d"/><use fill="#081340" xlink:href="#e"/><use fill="none" xlink:href="#e"/><use fill="#0cf" xlink:href="#f"/><use fill="none" xlink:href="#f"/><use fill="#081340" xlink:href="#g"/><use fill="none" xlink:href="#g"/><use fill="#0cf" xlink:href="#h"/><use fill="none" xlink:href="#h"/><use fill="#186993" xlink:href="#i"/><use fill="none" xlink:href="#i"/><use fill="#081340" xlink:href="#j"/><use fill="none" xlink:href="#j"/><use fill="#081340" xlink:href="#k"/><use fill="none" xlink:href="#k"/><use fill="#0cf" xlink:href="#l"/><use fill="none" xlink:href="#l"/><use fill="#186993" xlink:href="#m"/><use fill="none" xlink:href="#m"/><use fill="#186993" xlink:href="#n"/><use fill="none" xlink:href="#n"/></svg>