<svg viewBox="0 0 736 736" xmlns="http://www.w3.org/2000/svg" xmlns:xlink="http://www.w3.org/1999/xlink"><linearGradient id="a" gradientUnits="userSpaceOnUse" x1="0" x2="0" y1="655.33" y2="80.67"><stop offset="0" stop-color="#eee"/><stop offset="1" stop-color="#eee"/></linearGradient><path d="m575.33 318.442v35.738h66.18c7.633 0 13.82 6.187 13.82 13.82s-6.187 13.82-13.82 13.82h-66.18v35.738h66.18c7.633 0 13.82 6.187 13.82 13.82s-6.187 13.82-13.82 13.82h-66.18v35.738h66.18c7.633 0 13.82 6.187 13.82 13.82s-6.187 13.82-13.82 13.82h-66.18v-.246c0 37.003-29.997 67-67 67h.246v66.18c0 7.633-6.187 13.82-13.82 13.82s-13.82-6.187-13.82-13.82v-66.18h-35.738v66.18c0 7.633-6.187 13.82-13.82 13.82s-13.82-6.187-13.82-13.82v-66.18h-35.738v66.18c0 7.633-6.187 13.82-13.82 13.82s-13.82-6.187-13.82-13.82v-66.18h-35.738v66.18c0 7.633-6.187 13.82-13.82 13.82s-13.82-6.187-13.82-13.82v-66.18h-35.738v66.18c0 7.633-6.187 13.82-13.82 13.82s-13.82-6.187-13.82-13.82v-66.18h.246c-37.003 0-67-29.997-67-67v.246h-66.18c-7.633 0-13.82-6.187-13.82-13.82s6.187-13.82 13.82-13.82h66.18v-35.738h-66.18c-7.633 0-13.82-6.187-13.82-13.82s6.187-13.82 13.82-13.82h66.18v-35.738h-66.18c-7.633 0-13.82-6.187-13.82-13.82s6.187-13.82 13.82-13.82h66.18v-35.738h-66.18c-7.633 0-13.82-6.187-13.82-13.82s6.187-13.82 13.82-13.82h66.18v-35.738h-66.18c-7.633 0-13.82-6.187-13.82-13.82s6.187-13.82 13.82-13.82h66.18v.246c0-37.003 29.997-67 67-67h-.246v-66.18c0-7.633 6.187-13.82 13.82-13.82s13.82 6.187 13.82 13.82v66.18h35.738v-66.18c0-7.633 6.187-13.82 13.82-13.82s13.82 6.187 13.82 13.82v66.18h35.738v-66.18c0-7.633 6.187-13.82 13.82-13.82s13.82 6.187 13.82 13.82v66.18h35.738v-66.18c0-7.633 6.187-13.82 13.82-13.82s13.82 6.187 13.82 13.82v66.18h35.738v-66.18c0-7.633 6.187-13.82 13.82-13.82s13.82 6.187 13.82 13.82v66.18h-.246c37.003 0 67 29.997 67 67v-.246h66.18c7.633 0 13.82 6.187 13.82 13.82s-6.187 13.82-13.82 13.82h-66.18v35.738h66.18c7.633 0 13.82 6.187 13.82 13.82s-6.187 13.82-13.82 13.82zm-226.045 93.246c-24.481-9.891-36.418-38.012-26.527-62.493s38.012-36.418 62.493-26.528c24.481 9.891 36.418 38.014 26.528 62.495-9.891 24.479-38.014 36.416-62.493 26.525zm129.371-31.866c1.071-9.059.881-18.198-.352-26.893l20.513-24.072-12.602-29.687-31.565-1.966c-5.771-7.077-12.211-13.563-19.471-19.085l-2.122-31.059-29.673-11.99-23.472 20.72c-9.061-1.071-18.198-.881-26.893.352l-24.074-20.511-29.684 12.599-1.966 31.565c-7.077 5.771-13.563 12.211-19.085 19.471l-31.059 2.122-11.99 29.673 20.72 23.472c-1.071 9.061-.881 18.198.352 26.895l-20.513 24.072 12.602 29.684 31.565 1.966c5.771 7.079 12.211 13.563 19.471 19.085l2.492 31.211 29.673 11.988 23.474-20.718c9.059 1.071 18.195.878 26.893-.354l24.072 20.513 29.684-12.599 1.966-31.567c7.079-5.769 13.563-12.208 19.085-19.471l31.211-2.49 11.988-29.675z" fill="url(#a)"/><circle cx="368" cy="368" fill="none" r="358" stroke="url(#a)" stroke-miterlimit="10" stroke-width="20"/></svg>