<?xml version="1.0" encoding="utf-8"?>
<svg height="720" width="720" xmlns="http://www.w3.org/2000/svg">
  <path d="M 505 599 C 505 604.523 500.523 609 495 609 C 489.477 609 485 604.523 485 599 L 485 550 L 420 550 L 420 599 C 420 604.523 415.523 609 410 609 C 404.477 609 400 604.523 400 599 L 400 550 L 325 550 L 325 599 C 325 604.523 320.523 609 315 609 C 309.477 609 305 604.523 305 599 L 305 550 L 230 550 L 230 599 C 230 604.523 225.523 609 220 609 C 214.477 609 210 604.523 210 599 L 210 550 L 185 550 C 176.716 550 170 543.284 170 535 L 170 505 L 121 505 C 115.477 505 111 500.523 111 495 C 111 489.477 115.477 485 121 485 L 170 485 L 170 455 C 170 454.322 170.045 453.654 170.132 453 L 170 453 L 170 420 L 121 420 C 115.477 420 111 415.523 111 410 C 111 404.477 115.477 400 121 400 L 170 400 L 170 325 L 121 325 C 115.477 325 111 320.523 111 315 C 111 309.477 115.477 305 121 305 L 170 305 L 170 230 L 121 230 C 115.477 230 111 225.523 111 220 C 111 214.477 115.477 210 121 210 L 170 210 L 170 185 C 170 176.716 176.716 170 185 170 L 210 170 L 210 121 C 210 115.477 214.477 111 220 111 C 225.523 111 230 115.477 230 121 L 230 170 L 305 170 L 305 121 C 305 115.477 309.477 111 315 111 C 320.523 111 325 115.477 325 121 L 325 170 L 400 170 L 400 121 C 400 115.477 404.477 111 410 111 C 415.523 111 420 115.477 420 121 L 420 170 L 485 170 L 485 121 C 485 115.477 489.477 111 495 111 C 500.523 111 505 115.477 505 121 L 505 170 L 535 170 C 543.284 170 550 176.716 550 185 L 550 210 L 599 210 C 604.523 210 609 214.477 609 220 C 609 225.523 604.523 230 599 230 L 550 230 L 550 305 L 599 305 C 604.523 305 609 309.477 609 315 C 609 320.523 604.523 325 599 325 L 550 325 L 550 400 L 599 400 C 604.523 400 609 404.477 609 410 C 609 415.523 604.523 420 599 420 L 550 420 L 550 453 L 549.868 453 C 549.955 453.654 550 454.322 550 455 L 550 485 L 599 485 C 604.523 485 609 489.477 609 495 C 609 500.523 604.523 505 599 505 L 550 505 L 550 535 C 550 543.284 543.284 550 535 550 L 505 550 Z M 720 360 C 720 458.873 679.294 549.823 614.558 614.558 C 549.823 679.294 458.873 720 360 720 C 261.127 720 170.177 679.294 105.442 614.558 C 40.706 549.823 0 458.873 0 360 C 0 261.127 40.706 170.177 105.442 105.442 C 170.177 40.706 261.127 0 360 0 C 458.873 0 549.823 40.706 614.558 105.442 C 679.294 170.177 720 261.127 720 360 Z M 603.952 116.048 C 541.107 53.203 455.808 15 360 15 C 264.192 15 178.893 53.203 116.048 116.048 C 53.203 178.893 15 264.192 15 360 C 15 455.808 53.203 541.107 116.048 603.952 C 178.893 666.797 264.192 705 360 705 C 455.808 705 541.107 666.797 603.952 603.952 C 666.797 541.107 705 455.808 705 360 C 705 264.192 666.797 178.893 603.952 116.048 Z M 344.128 398.66 C 322.83 390.054 312.445 365.59 321.05 344.29 C 329.654 322.992 354.12 312.607 375.419 321.211 C 396.718 329.815 407.102 354.282 398.499 375.582 C 389.893 396.879 365.427 407.263 344.129 398.659 Z M 456.683 370.935 C 457.614 363.055 457.449 355.103 456.375 347.539 L 474.222 326.595 L 463.258 300.768 L 435.797 299.058 C 430.775 292.9 425.173 287.257 418.858 282.453 L 417.011 255.431 L 391.194 245 L 370.773 263.026 C 362.891 262.095 354.941 262.26 347.377 263.334 L 326.431 245.489 L 300.607 256.45 L 298.897 283.911 C 292.739 288.932 287.096 294.535 282.292 300.851 L 255.27 302.697 L 244.839 328.514 L 262.865 348.934 C 261.934 356.817 262.099 364.767 263.173 372.333 L 245.326 393.276 L 256.29 419.102 L 283.751 420.811 C 288.772 426.971 294.375 432.613 300.69 437.415 L 302.859 464.569 L 328.675 475 L 349.098 456.974 C 356.979 457.906 364.927 457.739 372.494 456.666 L 393.438 474.512 L 419.262 463.552 L 420.974 436.09 C 427.132 431.07 432.773 425.468 437.578 419.149 L 464.733 416.983 L 475.161 391.165 Z" fill="#eee"/>
</svg>
