<svg height="720" width="720" xmlns="http://www.w3.org/2000/svg" xmlns:xlink="http://www.w3.org/1999/xlink"><symbol id="a" xmlns="http://www.w3.org/2000/svg" xmlns:xlink="http://www.w3.org/1999/xlink"><g clip-path="url(#c)" transform="translate(-214 -214)"><path d="m264.36 291.502c-10.648-4.302-15.84-16.533-11.538-27.181s16.533-15.84 27.181-11.538 15.84 16.534 11.538 27.182c-4.302 10.647-16.534 15.839-27.181 11.537zm56.269-13.86c.466-3.94.383-7.915-.153-11.697l8.922-10.47-5.481-12.912-13.729-.855c-2.51-3.078-5.311-5.899-8.469-8.301l-.923-13.509-12.906-5.215-10.209 9.012c-3.941-.466-7.915-.383-11.697.153l-10.471-8.921-12.911 5.48-.855 13.729c-3.078 2.51-5.899 5.311-8.301 8.469l-13.509.923-5.215 12.906 9.012 10.209c-.466 3.941-.383 7.915.153 11.698l-8.922 10.47 5.481 12.911 13.729.855c2.51 3.079 5.311 5.899 8.469 8.301l1.084 13.575 12.906 5.214 10.21-9.011c3.94.466 7.914.382 11.697-.154l10.47 8.922 12.911-5.48.855-13.73c3.079-2.509 5.899-5.31 8.301-8.469l13.575-1.083 5.214-12.907z" fill="#fff" fill-rule="evenodd"/></g></symbol><linearGradient id="b" x1="0" x2="0" y1="0" y2="1"><stop offset="0" stop-color="#25ff88" stop-opacity=".996094"/><stop offset="1" stop-color="#00b050" stop-opacity=".992188"/></linearGradient><clipPath id="c"><path clip-rule="evenodd" d="m214 214h117v117h-117z"/></clipPath><circle cx="360" cy="360" fill="none" r="352.5" stroke="url(#b)" stroke-width="15"/><rect fill="#00b050" height="110" rx="15" stroke="#00b050" width="380" x="170" y="440"/><rect fill="#0f8" height="110" rx="15" stroke="#0f8" width="380" x="170" y="170"/><path d="m170 263h380v95h-380z" fill="#00e575" stroke="#00e575"/><rect fill="#0f8" height="20" rx="10" stroke="#0f8" width="70" x="539" y="210"/><rect fill="#00e575" height="20" rx="10" stroke="#00e575" width="70" x="539" y="305"/><rect fill="#00ca63" height="20" rx="10" stroke="#00ca63" width="70" x="539" y="400"/><rect fill="#00b050" height="20" rx="10" stroke="#00b050" width="70" x="539" y="485"/><rect fill="#00b050" height="20" rx="10" stroke="#00b050" width="70" x="111" y="485"/><rect fill="#00ca63" height="20" rx="10" stroke="#00ca63" width="70" x="111" y="400"/><rect fill="#00e575" height="20" rx="10" stroke="#00e575" width="70" x="111" y="305"/><g fill="#0f8" stroke="#0f8"><rect height="20" rx="10" width="70" x="111" y="210"/><rect height="70" rx="10" width="20" x="210" y="111"/><rect height="70" rx="10" width="20" x="305" y="111"/><rect height="70" rx="10" width="20" x="400" y="111"/><rect height="70" rx="10" width="20" x="485" y="111"/></g><rect fill="#00b050" height="70" rx="10" stroke="#00b050" width="20" x="210" y="539"/><path d="m170 358h380v95h-380z" fill="#00ca63" stroke="#00ca63"/><use transform="matrix(2 0 0 2 87.582 -92.244)" x="77.91448" xlink:href="#a" y="167.94698"/><rect fill="#00b050" height="70" rx="10" stroke="#00b050" width="20" x="305" y="539"/><rect fill="#00b050" height="70" rx="10" stroke="#00b050" width="20" x="400" y="539"/><rect fill="#00b050" height="70" rx="10" stroke="#00b050" width="20" x="485" y="539"/></svg>