<?xml version="1.0" encoding="UTF-8"?>
<!DOCTYPE svg PUBLIC "-//W3C//DTD SVG 1.1//EN" "http://www.w3.org/Graphics/SVG/1.1/DTD/svg11.dtd">
<svg xmlns="http://www.w3.org/2000/svg" xmlns:xlink="http://www.w3.org/1999/xlink">
	<symbol id="plyr-airplay" viewBox="0 0 56 56">
		<path d="M 45.293 51.046 C 45.672 51.52 45.672 52.279 45.198 52.657 C 45.008 52.847 44.724 52.94 44.439 52.94 L 11.085 52.94 C 10.424 52.94 9.95 52.466 9.95 51.805 C 9.95 51.52 10.043 51.236 10.234 51.046 L 26.816 31.999 C 27.288 31.431 28.047 31.431 28.616 31.906 C 28.616 31.906 28.712 31.999 28.712 31.999 L 45.293 51.046 Z M 41.408 40.527 L 38.755 37.4 L 48.705 37.4 C 49.557 37.496 50.316 37.305 51.073 37.022 C 51.546 36.739 52.019 36.358 52.21 35.885 C 52.588 35.128 52.684 34.274 52.588 33.517 L 52.588 10.302 C 52.684 9.449 52.495 8.691 52.21 7.932 C 51.927 7.459 51.546 6.985 51.073 6.795 C 50.316 6.416 49.462 6.322 48.705 6.416 L 7.012 6.416 C 6.16 6.322 5.401 6.512 4.642 6.795 C 4.168 7.081 3.695 7.459 3.505 7.932 C 3.127 8.691 3.031 9.543 3.127 10.302 L 3.127 33.422 C 3.031 34.274 3.222 35.033 3.505 35.789 C 3.79 36.263 4.168 36.739 4.642 36.927 C 5.401 37.305 6.253 37.4 7.012 37.305 L 16.962 37.305 L 14.307 40.434 L 7.958 40.434 C 5.116 40.434 4.168 40.149 3.222 39.58 C 2.179 39.011 1.42 38.255 0.852 37.213 C 0.283 36.17 0 35.221 0 32.473 L 0 11.154 C 0 8.311 0.283 7.364 0.852 6.322 C 1.42 5.279 2.179 4.52 3.222 3.952 C 4.264 3.383 5.211 3.1 7.958 3.1 L 47.946 3.1 C 50.789 3.1 51.736 3.383 52.778 3.952 C 53.821 4.52 54.58 5.279 55.148 6.322 C 55.717 7.364 56 8.311 56 11.154 L 56 32.473 C 56 35.317 55.717 36.263 55.148 37.213 C 54.58 38.255 53.821 39.011 52.778 39.58 C 51.736 40.149 50.789 40.434 47.946 40.434 L 41.408 40.527 Z"/>
	</symbol>
	<symbol id="plyr-captions-off" viewBox="0 0 56 56">
		<path d="M 16.5860 52.2461 C 17.7579 52.2461 18.5548 51.6367 19.9610 50.3711 L 28.0704 43.1758 L 43.0938 43.1758 C 50.0783 43.1758 53.8280 39.3086 53.8280 32.4414 L 53.8280 14.4883 C 53.8280 7.6211 50.0783 3.7539 43.0938 3.7539 L 12.9064 3.7539 C 5.9454 3.7539 2.1720 7.5976 2.1720 14.4883 L 2.1720 32.4414 C 2.1720 39.3320 5.9454 43.1758 12.9064 43.1758 L 14.0313 43.1758 L 14.0313 49.2695 C 14.0313 51.0742 14.9688 52.2461 16.5860 52.2461 Z M 17.5469 47.9570 L 17.5469 41.1602 C 17.5469 39.8945 17.0782 39.4023 15.7891 39.4023 L 12.9298 39.4023 C 8.1720 39.4023 5.9454 36.9883 5.9454 32.4180 L 5.9454 14.4883 C 5.9454 9.9180 8.1720 7.5273 12.9298 7.5273 L 43.0938 7.5273 C 47.8280 7.5273 50.0548 9.9180 50.0548 14.4883 L 50.0548 32.4180 C 50.0548 36.9883 47.8280 39.4023 43.0938 39.4023 L 27.9064 39.4023 C 26.6173 39.4023 25.9376 39.5898 25.0469 40.5039 Z M 13.3282 26.6758 L 23.0079 26.6758 C 23.7579 26.6758 24.3438 26.0898 24.3438 25.3164 C 24.3438 24.5898 23.7579 23.9571 23.0079 23.9571 L 13.3282 23.9571 C 12.5782 23.9571 11.9923 24.5898 11.9923 25.3164 C 11.9923 26.0898 12.5782 26.6758 13.3282 26.6758 Z M 27.8360 26.6758 L 43.0001 26.6758 C 43.7501 26.6758 44.3596 26.0898 44.3596 25.3164 C 44.3596 24.5898 43.7501 23.9571 43.0001 23.9571 L 27.8360 23.9571 C 27.0860 23.9571 26.5001 24.5898 26.5001 25.3164 C 26.5001 26.0898 27.0860 26.6758 27.8360 26.6758 Z M 13.3282 32.8164 L 17.3126 32.8164 C 18.0626 32.8164 18.6720 32.2305 18.6720 31.4805 C 18.6720 30.7071 18.0626 30.0976 17.3126 30.0976 L 13.3282 30.0976 C 12.5782 30.0976 11.9923 30.7071 11.9923 31.4805 C 11.9923 32.2305 12.5782 32.8164 13.3282 32.8164 Z M 22.1642 32.8164 L 33.9064 32.8164 C 34.6564 32.8164 35.2423 32.2305 35.2423 31.4805 C 35.2423 30.7071 34.6564 30.0976 33.9064 30.0976 L 22.1642 30.0976 C 21.4142 30.0976 20.8048 30.7071 20.8048 31.4805 C 20.8048 32.2305 21.4142 32.8164 22.1642 32.8164 Z M 38.7344 32.8164 L 43.0001 32.8164 C 43.7501 32.8164 44.3596 32.2305 44.3596 31.4805 C 44.3596 30.7071 43.7501 30.0976 43.0001 30.0976 L 38.7344 30.0976 C 37.9844 30.0976 37.3985 30.7071 37.3985 31.4805 C 37.3985 32.2305 37.9844 32.8164 38.7344 32.8164 Z" fill-opacity=".5"/>
	</symbol>
	<symbol id="plyr-captions-on" viewBox="0 0 56 56">
		<path d="M 16.5860 52.2461 C 17.7579 52.2461 18.5548 51.6367 19.9610 50.3711 L 28.0704 43.1758 L 43.0938 43.1758 C 50.0783 43.1758 53.8280 39.3086 53.8280 32.4414 L 53.8280 14.4883 C 53.8280 7.6211 50.0783 3.7539 43.0938 3.7539 L 12.9064 3.7539 C 5.9454 3.7539 2.1720 7.5976 2.1720 14.4883 L 2.1720 32.4414 C 2.1720 39.3320 5.9454 43.1758 12.9064 43.1758 L 14.0313 43.1758 L 14.0313 49.2695 C 14.0313 51.0742 14.9688 52.2461 16.5860 52.2461 Z M 17.5469 47.9570 L 17.5469 41.1602 C 17.5469 39.8945 17.0782 39.4023 15.7891 39.4023 L 12.9298 39.4023 C 8.1720 39.4023 5.9454 36.9883 5.9454 32.4180 L 5.9454 14.4883 C 5.9454 9.9180 8.1720 7.5273 12.9298 7.5273 L 43.0938 7.5273 C 47.8280 7.5273 50.0548 9.9180 50.0548 14.4883 L 50.0548 32.4180 C 50.0548 36.9883 47.8280 39.4023 43.0938 39.4023 L 27.9064 39.4023 C 26.6173 39.4023 25.9376 39.5898 25.0469 40.5039 Z M 13.3282 26.6758 L 23.0079 26.6758 C 23.7579 26.6758 24.3438 26.0898 24.3438 25.3164 C 24.3438 24.5898 23.7579 23.9571 23.0079 23.9571 L 13.3282 23.9571 C 12.5782 23.9571 11.9923 24.5898 11.9923 25.3164 C 11.9923 26.0898 12.5782 26.6758 13.3282 26.6758 Z M 27.8360 26.6758 L 43.0001 26.6758 C 43.7501 26.6758 44.3596 26.0898 44.3596 25.3164 C 44.3596 24.5898 43.7501 23.9571 43.0001 23.9571 L 27.8360 23.9571 C 27.0860 23.9571 26.5001 24.5898 26.5001 25.3164 C 26.5001 26.0898 27.0860 26.6758 27.8360 26.6758 Z M 13.3282 32.8164 L 17.3126 32.8164 C 18.0626 32.8164 18.6720 32.2305 18.6720 31.4805 C 18.6720 30.7071 18.0626 30.0976 17.3126 30.0976 L 13.3282 30.0976 C 12.5782 30.0976 11.9923 30.7071 11.9923 31.4805 C 11.9923 32.2305 12.5782 32.8164 13.3282 32.8164 Z M 22.1642 32.8164 L 33.9064 32.8164 C 34.6564 32.8164 35.2423 32.2305 35.2423 31.4805 C 35.2423 30.7071 34.6564 30.0976 33.9064 30.0976 L 22.1642 30.0976 C 21.4142 30.0976 20.8048 30.7071 20.8048 31.4805 C 20.8048 32.2305 21.4142 32.8164 22.1642 32.8164 Z M 38.7344 32.8164 L 43.0001 32.8164 C 43.7501 32.8164 44.3596 32.2305 44.3596 31.4805 C 44.3596 30.7071 43.7501 30.0976 43.0001 30.0976 L 38.7344 30.0976 C 37.9844 30.0976 37.3985 30.7071 37.3985 31.4805 C 37.3985 32.2305 37.9844 32.8164 38.7344 32.8164 Z"/>
	</symbol>
	<symbol id="plyr-download" viewBox="0 0 56 56">
		<g transform="translate(1 3)">
			<path d="M34.500301,36.8524845 L34.500301,33.1024845 L45.7481592,33.1024845 C49.0630506,33.1024845 51.750301,30.4152341 51.750301,27.1003427 C51.750301,24.3015031 49.8171637,21.890444 47.1335491,21.2580066 L43.9596438,20.5100242 L44.2596367,17.2630014 C44.2929276,16.9026725 44.3096978,16.5391274 44.3096978,16.1729948 C44.3096978,9.7375897 39.0927712,4.52066307 32.6573661,4.52066307 C28.6631256,4.52066307 25.0190167,6.54208569 22.8799162,9.83103522 L21.3554475,12.1749647 L18.6739301,11.3828318 C18.2192181,11.2485078 17.7437939,11.1793923 17.2550343,11.1793923 C14.4971438,11.1793923 12.2614317,13.4151043 12.2614317,16.1729948 C12.2614317,16.224154 12.2621889,16.2751635 12.2636986,16.326017 L12.3549685,19.4002123 L9.35808804,20.0913808 C6.39664535,20.7743764 4.25869937,23.4284284 4.25869937,26.5127397 C4.25869937,30.1521552 7.20902862,33.1024845 10.8484442,33.1024845 L21.5003011,33.1024845 L21.500301,36.8524845 L10.8484442,36.8524845 C5.13796081,36.8524845 0.508699372,32.223223 0.508699372,26.5127397 C0.508699372,21.6045779 3.92852288,17.4951588 8.51535025,16.4373019 C8.51274405,16.3495183 8.51143173,16.2614098 8.51143173,16.1729948 C8.51143173,11.3440365 12.4260759,7.42939227 17.2550343,7.42939227 C18.1169421,7.42939227 18.9497219,7.5541039 19.7363133,7.7864667 C22.4830258,3.56329032 27.2440694,0.770663069 32.6573661,0.770663069 C41.163839,0.770663069 48.0596978,7.66652189 48.0596978,16.1729948 C48.0596978,16.6568639 48.0373855,17.1355216 47.9937336,17.6079953 C52.297207,18.6221788 55.500301,22.4871994 55.500301,27.1003427 C55.500301,32.4863019 51.1341184,36.8524845 45.7481592,36.8524845 L34.500301,36.8524845 L34.500301,36.8524845 Z"/>
			<path d="M27.944101,49.8507332 C28.412901,49.8507332 28.834701,49.6867332 29.303501,49.2179332 L37.225401,41.5773332 C37.576901,41.2257332 37.764401,40.8507332 37.764401,40.3351332 C37.764401,39.3742332 37.037901,38.6945332 36.053501,38.6945332 C35.608201,38.6945332 35.116001,38.8820332 34.787901,39.2570332 L31.248801,43.0304332 L29.655001,44.6945332 L29.795701,41.2023332 L29.795701,23.1398575 C29.795701,22.1555575 28.951901,21.3351575 27.944101,21.3351575 C26.936301,21.3351575 26.069101,22.1555575 26.069101,23.1398575 L26.069101,41.2023332 L26.233201,44.6945332 L24.639401,43.0304332 L21.076901,39.2570332 C20.748801,38.8820332 20.256601,38.6945332 19.787901,38.6945332 C18.803501,38.6945332 18.100301,39.3742332 18.100301,40.3351332 C18.100301,40.8507332 18.311301,41.2257332 18.662901,41.5773332 L26.584701,49.2179332 C27.053501,49.6867332 27.451901,49.8507332 27.944101,49.8507332 Z"/>
		</g>
	</symbol>
	<symbol id="plyr-enter-fullscreen" viewBox="0 0 56 56">
		<path d="M 7.8436 24.6016 C 9.0624 24.6016 9.9764 23.6641 9.9764 22.4219 L 9.9764 20.4531 L 9.4843 12.2734 L 15.6718 18.7656 L 22.8671 26.0312 C 23.2655 26.4531 23.7811 26.6406 24.3671 26.6406 C 25.6796 26.6406 26.6874 25.7734 26.6874 24.4609 C 26.6874 23.8281 26.4530 23.2656 26.0311 22.8437 L 18.8124 15.6250 L 12.2968 9.4609 L 20.4999 9.9297 L 22.4686 9.9297 C 23.7108 9.9297 24.6718 9.0625 24.6718 7.7968 C 24.6718 6.5312 23.7108 5.6406 22.4686 5.6406 L 9.4374 5.6406 C 7.0468 5.6406 5.6640 7.0234 5.6640 9.4141 L 5.6640 22.4219 C 5.6640 23.6406 6.5780 24.6016 7.8436 24.6016 Z M 33.5311 50.3594 L 46.5624 50.3594 C 48.9532 50.3594 50.3360 48.9766 50.3360 46.5859 L 50.3360 33.5781 C 50.3360 32.3594 49.4216 31.3984 48.1564 31.3984 C 46.9374 31.3984 46.0468 32.3359 46.0468 33.5781 L 46.0468 35.5469 L 46.5155 43.7266 L 40.3280 37.2344 L 33.1327 29.9688 C 32.7343 29.5469 32.2186 29.3594 31.6327 29.3594 C 30.3202 29.3594 29.3358 30.2266 29.3358 31.5390 C 29.3358 32.1719 29.5468 32.7344 29.9686 33.1563 L 37.2108 40.3750 L 43.7030 46.5391 L 35.4999 46.0703 L 33.5311 46.0703 C 32.2889 46.0703 31.3515 46.9375 31.3280 48.2031 C 31.3280 49.4687 32.2889 50.3594 33.5311 50.3594 Z"/>
	</symbol>
	<symbol id="plyr-exit-fullscreen" viewBox="0 0 56 56">
		<path d="M 9.3672 25.6328 L 22.3750 25.6328 C 24.7656 25.6328 26.1719 24.2266 26.1719 21.8359 L 26.1719 8.8516 C 26.1719 7.6328 25.2578 6.6718 23.9922 6.6718 C 22.75 6.6718 21.8594 7.6094 21.8594 8.8516 L 21.8594 10.8203 L 22.3516 19.0000 L 16.1641 12.5078 L 8.9688 5.2422 C 8.5703 4.8203 8.0312 4.6094 7.4688 4.6094 C 6.1328 4.6094 5.1484 5.5000 5.1484 6.8125 C 5.1484 7.4218 5.3828 8.0078 5.8047 8.4297 L 13.0234 15.6484 L 19.5390 21.8125 L 11.3359 21.3437 L 9.3672 21.3437 C 8.1250 21.3437 7.1641 22.2109 7.1641 23.4766 C 7.1641 24.7187 8.1016 25.6328 9.3672 25.6328 Z M 31.8437 49.4219 C 33.0859 49.4219 33.9766 48.5078 33.9766 47.2422 L 33.9766 45.0156 L 33.4844 36.8594 L 39.6719 43.3516 L 47.0312 50.7578 C 47.4296 51.1797 47.9687 51.3906 48.5312 51.3906 C 49.8436 51.3906 50.8516 50.5000 50.8516 49.1875 C 50.8516 48.5781 50.6173 47.9922 50.1954 47.5703 L 42.8125 40.1875 L 36.3203 34.0234 L 44.5 34.4922 L 46.7266 34.4922 C 47.9687 34.4922 48.9296 33.625 48.9296 32.3828 C 48.9296 31.1172 47.9922 30.2266 46.7266 30.2266 L 33.4609 30.2266 C 31.0703 30.2266 29.6875 31.6094 29.6875 34.0000 L 29.6875 47.2422 C 29.6875 48.4844 30.6016 49.4219 31.8437 49.4219 Z"/>
	</symbol>
	<symbol id="plyr-fast-forward" viewBox="0 0 56 56">
		<path d="M 27.1446 26.1836 C 27.7070 26.1836 28.1524 25.9961 28.5039 25.6445 L 38.1602 15.9414 C 38.5586 15.5430 38.7461 15.0742 38.7461 14.5352 C 38.7461 14.0195 38.5352 13.5039 38.1602 13.1289 L 28.5039 3.3320 C 28.1758 2.9570 27.7070 2.7695 27.1211 2.7695 C 26.0899 2.7695 25.2930 3.6133 25.2930 4.6914 C 25.2930 5.1836 25.4570 5.6523 25.8086 6.0274 L 32.0664 12.1679 C 30.7305 11.9336 29.3477 11.7930 27.9883 11.7930 C 16.5039 11.7930 7.2930 21.0039 7.2930 32.4883 C 7.2930 43.9961 16.5039 53.2305 27.9883 53.2305 C 39.4726 53.2305 48.7070 43.9961 48.7070 32.4883 C 48.7070 31.3633 47.9102 30.5430 46.7383 30.5430 C 45.6367 30.5430 44.9336 31.3633 44.9336 32.4883 C 44.9336 41.9101 37.3867 49.4570 27.9883 49.4570 C 18.5899 49.4570 11.0664 41.9101 11.0664 32.4883 C 11.0664 23.0898 18.5899 15.5664 27.9883 15.5664 C 29.7930 15.5664 31.4102 15.7070 32.8399 16.0117 L 25.8320 22.9726 C 25.4570 23.3477 25.2930 23.8164 25.2930 24.3086 C 25.2930 25.3867 26.0899 26.1836 27.1446 26.1836 Z"/>
	</symbol>
	<symbol id="plyr-logo-vimeo" viewBox="0 0 18 18">
		<path d="M17 5.3c-.1 1.6-1.2 3.7-3.3 6.4-2.2 2.8-4 4.2-5.5 4.2-.9 0-1.7-.9-2.4-2.6C5 10.9 4.4 6 3 6c-.1 0-.5.3-1.2.8l-.8-1c.8-.7 3.5-3.4 4.7-3.5 1.2-.1 2 .7 2.3 2.5.3 2 .8 6.1 1.8 6.1.9 0 2.5-3.4 2.6-4 .1-.9-.3-1.9-2.3-1.1.8-2.6 2.3-3.8 4.5-3.8 1.7.1 2.5 1.2 2.4 3.3z"/>
	</symbol>
	<symbol id="plyr-logo-youtube" viewBox="0 0 18 18">
		<path d="M16.8 5.8c-.2-1.3-.8-2.2-2.2-2.4C12.4 3 9 3 9 3s-3.4 0-5.6.4C2 3.6 1.3 4.5 1.2 5.8 1 7.1 1 9 1 9s0 1.9.2 3.2c.2 1.3.8 2.2 2.2 2.4C5.6 15 9 15 9 15s3.4 0 5.6-.4c1.4-.3 2-1.1 2.2-2.4.2-1.3.2-3.2.2-3.2s0-1.9-.2-3.2zM7 12V6l5 3-5 3z"/>
	</symbol>
	<symbol id="plyr-muted" viewBox="0 0 56 56">
		<path d="M 39.1796 33.4024 L 39.1796 8.2070 C 39.1796 6.6367 38.0312 5.3242 36.3906 5.3242 C 35.2421 5.3242 34.4687 5.8398 33.2265 7.0117 L 23.6171 16.1055 C 23.4765 16.2461 23.3359 16.3398 23.1718 16.3867 L 22.2343 16.4570 Z M 46.7733 49.9727 C 47.4999 50.6758 48.6484 50.6758 49.3280 49.9727 C 50.0312 49.2461 50.0548 48.1211 49.3280 47.4180 L 9.2030 7.2929 C 8.4999 6.5898 7.3280 6.5898 6.6249 7.2929 C 5.9452 7.9727 5.9452 9.1680 6.6249 9.8476 Z M 36.4374 48.3320 C 37.8202 48.3320 38.7812 47.5117 39.0859 46.1289 L 11.4062 18.4961 C 10.6562 19.3867 10.2343 20.6758 10.2343 22.3164 L 10.2343 31.4102 C 10.2343 34.9258 12.0155 36.7305 15.3202 36.7305 L 22.2812 36.7305 C 22.5155 36.7305 22.7265 36.8008 22.8671 36.9414 L 33.2265 46.8086 C 34.3515 47.8633 35.2890 48.3320 36.4374 48.3320 Z"/>
	</symbol>
	<symbol id="plyr-pause" viewBox="0 0 56 56">
		<path d="M 16.8320 47.0898 L 22.1523 47.0898 C 24.2148 47.0898 25.2695 46.0117 25.2695 43.9492 L 25.2695 12.0273 C 25.2695 9.8945 24.2148 8.9102 22.1523 8.9102 L 16.8320 8.9102 C 14.7695 8.9102 13.6914 9.9883 13.6914 12.0273 L 13.6914 43.9492 C 13.6914 46.0117 14.7695 47.0898 16.8320 47.0898 Z M 33.8477 47.0898 L 39.1679 47.0898 C 41.2305 47.0898 42.3086 46.0117 42.3086 43.9492 L 42.3086 12.0273 C 42.3086 9.8945 41.2305 8.9102 39.1679 8.9102 L 33.8477 8.9102 C 31.7852 8.9102 30.7305 9.9883 30.7305 12.0273 L 30.7305 43.9492 C 30.7305 46.0117 31.7852 47.0898 33.8477 47.0898 Z"/>
	</symbol>
	<symbol id="plyr-pip" viewBox="0 0 56 56">
		<path d="M 0 35.755 L 0 13.452 C 0 9.089 2.224 6.887 6.651 6.887 L 38.78 6.887 C 43.186 6.887 45.41 9.089 45.41 13.452 L 42 13.643 C 42 11.44 40.814 10.296 38.717 10.296 L 6.714 10.296 C 4.596 10.296 3.41 11.44 3.41 13.643 L 3.41 35.564 C 3.41 37.767 4.596 38.889 6.714 38.889 L 6.651 42.299 C 2.224 42.299 0 40.118 0 35.755 Z"/>
		<path d="M 17.241 52.508 L 49.35 52.508 C 53.755 52.508 56 50.306 56 45.942 L 56 23.428 C 56 19.086 53.755 16.883 49.35 16.883 L 17.241 16.883 C 12.793 16.883 10.59 19.065 10.59 23.428 L 10.59 45.942 C 10.59 50.306 12.793 52.508 17.241 52.508 Z"/>
	</symbol>
	<symbol id="plyr-play" viewBox="0 0 56 56">
		<path d="M 13.0937 47.8398 C 14.0313 47.8398 14.8281 47.4648 15.7656 46.9258 L 43.0937 31.1289 C 45.0391 29.9805 45.7187 29.2305 45.7187 27.9883 C 45.7187 26.7461 45.0391 25.9961 43.0937 24.8711 L 15.7656 9.0508 C 14.8281 8.5118 14.0313 8.1602 13.0937 8.1602 C 11.3594 8.1602 10.2813 9.4727 10.2813 11.5118 L 10.2813 44.4649 C 10.2813 46.5039 11.3594 47.8398 13.0937 47.8398 Z"/>
	</symbol>
	<symbol id="plyr-restart" viewBox="0 0 56 56">
		<path d="M 27.1446 26.1836 C 27.7070 26.1836 28.1524 25.9961 28.5039 25.6445 L 38.1602 15.9414 C 38.5586 15.5430 38.7461 15.0742 38.7461 14.5352 C 38.7461 14.0195 38.5352 13.5039 38.1602 13.1289 L 28.5039 3.3320 C 28.1758 2.9570 27.7070 2.7695 27.1211 2.7695 C 26.0899 2.7695 25.2930 3.6133 25.2930 4.6914 C 25.2930 5.1836 25.4570 5.6523 25.8086 6.0274 L 32.0664 12.1679 C 30.7305 11.9336 29.3477 11.7930 27.9883 11.7930 C 16.5039 11.7930 7.2930 21.0039 7.2930 32.4883 C 7.2930 43.9961 16.5039 53.2305 27.9883 53.2305 C 39.4726 53.2305 48.7070 43.9961 48.7070 32.4883 C 48.7070 31.3633 47.9102 30.5430 46.7383 30.5430 C 45.6367 30.5430 44.9336 31.3633 44.9336 32.4883 C 44.9336 41.9101 37.3867 49.4570 27.9883 49.4570 C 18.5899 49.4570 11.0664 41.9101 11.0664 32.4883 C 11.0664 23.0898 18.5899 15.5664 27.9883 15.5664 C 29.7930 15.5664 31.4102 15.7070 32.8399 16.0117 L 25.8320 22.9726 C 25.4570 23.3477 25.2930 23.8164 25.2930 24.3086 C 25.2930 25.3867 26.0899 26.1836 27.1446 26.1836 Z"/>
	</symbol>
	<symbol id="plyr-rewind" viewBox="0 0 56 56">
		<path d="M 28.8555 26.1836 C 29.9102 26.1836 30.7070 25.3867 30.7070 24.3086 C 30.7070 23.8164 30.5195 23.3477 30.1680 22.9726 L 23.1602 16.0117 C 24.5664 15.7070 26.2070 15.5664 27.9883 15.5664 C 37.3867 15.5664 44.9336 23.0898 44.9336 32.4883 C 44.9336 41.9101 37.3867 49.4570 27.9883 49.4570 C 18.5899 49.4570 11.0664 41.9101 11.0664 32.4883 C 11.0664 31.3633 10.3399 30.5430 9.2383 30.5430 C 8.0899 30.5430 7.2930 31.3633 7.2930 32.4883 C 7.2930 43.9961 16.5039 53.2305 27.9883 53.2305 C 39.4726 53.2305 48.7070 43.9961 48.7070 32.4883 C 48.7070 21.0039 39.4726 11.7930 27.9883 11.7930 C 26.6289 11.7930 25.2695 11.9336 23.9336 12.1679 L 30.1914 6.0274 C 30.5195 5.6523 30.7070 5.1836 30.7070 4.6914 C 30.7070 3.6133 29.9102 2.7695 28.8555 2.7695 C 28.2930 2.7695 27.8242 2.9570 27.4961 3.3320 L 17.8399 13.1289 C 17.4648 13.5039 17.2539 14.0195 17.2539 14.5352 C 17.2539 15.0742 17.4180 15.5430 17.8399 15.9414 L 27.4961 25.6445 C 27.8242 25.9961 28.2695 26.1836 28.8555 26.1836 Z"/>
	</symbol>
	<symbol id="plyr-settings" viewBox="0 0 56 56">
		<path d="M 28.0000 50.8281 C 28.6094 50.8281 29.1719 50.7578 29.8047 50.7110 L 31.1641 53.2891 C 31.4219 53.8047 31.9375 54.0859 32.5704 53.9922 C 33.1563 53.8750 33.5782 53.4532 33.6485 52.8203 L 34.0704 49.9844 C 35.2188 49.6797 36.3672 49.2344 37.4922 48.7422 L 39.6016 50.6406 C 40.0469 51.0625 40.6094 51.1563 41.1953 50.8281 C 41.7110 50.5469 41.9219 49.9844 41.8047 49.3750 L 41.2188 46.5625 C 42.1797 45.8828 43.1407 45.1094 44.0078 44.2422 L 46.6328 45.3438 C 47.2189 45.5781 47.7579 45.4610 48.2034 44.9219 C 48.6018 44.5000 48.6483 43.8906 48.3205 43.3750 L 46.7970 40.9375 C 47.5002 39.9532 48.0627 38.8984 48.6018 37.7735 L 51.4611 37.9141 C 52.0703 37.9375 52.5858 37.6094 52.7970 37.0235 C 52.9842 36.4375 52.7970 35.8750 52.3045 35.5 L 50.0783 33.7188 C 50.3831 32.5937 50.6173 31.3750 50.7109 30.1094 L 53.4296 29.2657 C 54.0157 29.0547 54.3906 28.6094 54.3906 27.9766 C 54.3906 27.3672 54.0157 26.9219 53.4296 26.7110 L 50.7109 25.8437 C 50.6173 24.5781 50.3831 23.4063 50.0783 22.2578 L 52.3045 20.4532 C 52.7970 20.1016 52.9842 19.5625 52.7970 18.9766 C 52.5858 18.3906 52.0703 18.0625 51.4611 18.0859 L 48.6018 18.2032 C 48.0627 17.0781 47.5002 16.0235 46.7970 15.0391 L 48.3205 12.6016 C 48.6483 12.1094 48.6018 11.5000 48.2034 11.0781 C 47.7579 10.5391 47.2189 10.3984 46.6328 10.6563 L 44.0078 11.7110 C 43.1407 10.8906 42.1797 10.0937 41.2188 9.4141 L 41.8047 6.6250 C 41.9219 5.9922 41.7110 5.4297 41.1953 5.1484 C 40.6094 4.8437 40.0469 4.8906 39.6016 5.3594 L 37.4922 7.2110 C 36.3672 6.7188 35.2188 6.3203 34.0704 5.9922 L 33.6485 3.1563 C 33.5782 2.5469 33.1563 2.1016 32.5704 2.0078 C 31.9375 1.9141 31.4219 2.1719 31.1641 2.6875 L 29.8047 5.2657 C 29.1719 5.2188 28.6094 5.1719 28.0000 5.1719 C 27.3672 5.1719 26.8047 5.2188 26.1485 5.2657 L 24.8126 2.6875 C 24.5547 2.1719 24.0391 1.9141 23.3829 2.0078 C 22.7969 2.1016 22.3985 2.5469 22.3047 3.1563 L 21.9063 5.9688 C 20.7344 6.3203 19.5860 6.7188 18.4844 7.2110 L 16.3751 5.3594 C 15.9063 4.8906 15.3438 4.8437 14.7813 5.1484 C 14.2657 5.4297 14.0547 5.9922 14.1719 6.6250 L 14.7578 9.4141 C 13.7735 10.0937 12.8126 10.8906 11.9453 11.7110 L 9.3438 10.6563 C 8.7578 10.3984 8.1953 10.5391 7.7500 11.0781 C 7.3751 11.5000 7.3282 12.1094 7.6329 12.5781 L 9.1797 15.0391 C 8.4766 16.0235 7.9141 17.0781 7.3751 18.2032 L 4.4922 18.0859 C 3.8829 18.0625 3.3672 18.3906 3.1797 18.9766 C 2.9922 19.5625 3.1563 20.1016 3.6485 20.4532 L 5.8985 22.2578 C 5.5938 23.4063 5.3360 24.5781 5.2657 25.8437 L 2.5469 26.7110 C 1.9375 26.8984 1.6094 27.3437 1.6094 27.9766 C 1.6094 28.6094 1.9375 29.0547 2.5469 29.2657 L 5.2657 30.1328 C 5.3360 31.3750 5.5938 32.5937 5.8985 33.7188 L 3.6485 35.5 C 3.1563 35.8750 2.9922 36.4375 3.1797 37.0235 C 3.3672 37.6094 3.8829 37.9375 4.4922 37.9141 L 7.3751 37.7735 C 7.9141 38.8984 8.4766 39.9532 9.1563 40.9375 L 7.6563 43.3750 C 7.3047 43.8906 7.3516 44.5000 7.7500 44.9219 C 8.1953 45.4610 8.7578 45.5781 9.3438 45.3438 L 11.9453 44.2422 C 12.8126 45.1094 13.7735 45.8828 14.7578 46.5625 L 14.1719 49.3750 C 14.0547 49.9844 14.2657 50.5469 14.7813 50.8281 C 15.3672 51.1563 15.9297 51.0625 16.3751 50.6406 L 18.4610 48.7422 C 19.5860 49.2344 20.7344 49.6797 21.9063 49.9844 L 22.3047 52.8203 C 22.3985 53.4532 22.7969 53.8750 23.3829 53.9922 C 24.0391 54.0859 24.5547 53.8047 24.8126 53.2891 L 26.1485 50.7110 C 26.7813 50.7578 27.3672 50.8281 28.0000 50.8281 Z M 33.8829 26.5000 C 32.7813 23.5469 30.6251 21.9297 27.9297 21.9297 C 27.5313 21.9297 27.0626 21.9766 26.3126 22.1406 L 19.5860 10.6563 C 22.0938 9.4141 24.9531 8.7344 28.0000 8.7344 C 38.2188 8.7344 46.2344 16.4922 46.9611 26.5000 Z M 8.9688 28.0000 C 8.9688 21.4844 12.0391 15.7422 16.8907 12.2735 L 23.6641 23.8281 C 22.3985 25.1406 21.8126 26.5703 21.8126 28.0937 C 21.8126 29.5703 22.3751 30.9297 23.6641 32.2891 L 16.7266 43.6328 C 11.9922 40.1406 8.9688 34.4688 8.9688 28.0000 Z M 25.1172 28.0703 C 25.1172 26.4766 26.4766 25.2344 27.9766 25.2344 C 29.5704 25.2344 30.8829 26.4766 30.8829 28.0703 C 30.8829 29.6406 29.5704 30.9297 27.9766 30.9297 C 26.4766 30.9297 25.1172 29.6406 25.1172 28.0703 Z M 28.0000 47.2656 C 24.8829 47.2656 21.9766 46.5391 19.4219 45.2735 L 26.3126 34 C 27.0391 34.1875 27.5313 34.2344 27.9297 34.2344 C 30.6485 34.2344 32.8047 32.5703 33.8829 29.5469 L 46.9611 29.5469 C 46.2109 39.5078 38.1953 47.2656 28.0000 47.2656 Z"/>
	</symbol>
	<symbol id="plyr-volume" viewBox="0 0 56 56">
		<path d="M 26.0001 49.4510 C 27.5814 49.4510 28.7210 48.2882 28.7210 46.7300 L 28.7210 9.6369 C 28.7210 8.0787 27.5814 6.7765 25.9536 6.7765 C 24.8140 6.7765 24.0466 7.2881 22.8140 8.4509 L 12.5582 18.1486 C 12.3954 18.2881 12.1861 18.3579 11.9535 18.3579 L 5.0465 18.3579 C 1.7674 18.3579 0 20.1486 0 23.6370 L 0 32.6602 C 0 36.1486 1.7674 37.9393 5.0465 37.9393 L 11.9535 37.9393 C 12.1861 37.9393 12.3954 38.0091 12.5582 38.1486 L 22.8140 47.9393 C 23.9303 48.9859 24.8605 49.4510 26.0001 49.4510 Z M 48.4886 44.7068 C 49.3954 45.3114 50.5118 45.0789 51.1629 44.1486 C 54.2325 39.8696 56.0000 34.1719 56.0000 28.2184 C 56.0000 22.2416 54.2559 16.5439 51.1629 12.2648 C 50.4885 11.3578 49.3954 11.1253 48.4886 11.7300 C 47.6046 12.3346 47.4651 13.4741 48.1628 14.4741 C 50.6976 18.1951 52.2560 23.0788 52.2560 28.2184 C 52.2560 33.3579 50.7442 38.2882 48.1395 41.9626 C 47.4884 42.9626 47.6046 44.1021 48.4886 44.7068 Z M 39.2094 38.4277 C 40.0001 38.9858 41.1396 38.7998 41.8140 37.8928 C 43.6281 35.4510 44.7212 31.8695 44.7212 28.2184 C 44.7212 24.5672 43.6048 21.0090 41.8140 18.5207 C 41.1396 17.6137 40.0234 17.4277 39.2094 17.9858 C 38.1862 18.6602 38.0699 19.8463 38.8140 20.8695 C 40.1629 22.6835 40.9768 25.4509 40.9768 28.2184 C 40.9768 30.9858 40.1164 33.7533 38.7908 35.5905 C 38.0931 36.5905 38.2094 37.7300 39.2094 38.4277 Z"/>
	</symbol>
</svg>
